{
  "accessors": [
    {
      "bufferView": 2,
      "componentType": 5126,
      "count": 112,
      "max": [
        5.269779205322266,
        1.3061177730560303,
        2.2697789669036865
      ],
      "min": [
        4.730220794677734,
        -0.144741028547287,
        1.7302210330963135
      ],
      "type": "VEC3"
    },
    {
      "bufferView": 2,
      "byteOffset": 1344,
      "componentType": 5126,
      "count": 112,
      "max": [
        1.0,
        1.0,
        1.0
      ],
      "min": [
        -1.0,
        -1.0,
        -1.0
      ],
      "type": "VEC3"
    },
    {
      "bufferView": 3,
      "componentType": 5126,
      "count": 112,
      "max": [
        0.9999884366989136,
        0.9999922513961792,
        0.9999927878379822,
        1.0
      ],
      "min": [
        -0.9999883770942688,
        -0.9999881386756897,
        -0.9999886155128479,
        1.0
      ],
      "type": "VEC4"
    },
    {
      "bufferView": 1,
      "componentType": 5126,
      "count": 112,
      "max": [
        0.4362313747406006,
        0.8171522617340088
      ],
      "min": [
        0.012539386749267578,
        0.08173787593841553
      ],
      "type": "VEC2"
    },
    {
      "bufferView": 0,
      "componentType": 5125,
      "count": 162,
      "type": "SCALAR"
    },
    {
      "bufferView": 2,
      "byteOffset": 2688,
      "componentType": 5126,
      "count": 1246,
      "max": [
        1.721670389175415,
        3.385711669921875,
        2.1778430938720703
      ],
      "min": [
        -1.721670150756836,
        -3.5762786865234375e-07,
        -2.1778430938720703
      ],
      "type": "VEC3"
    },
    {
      "bufferView": 2,
      "byteOffset": 17640,
      "componentType": 5126,
      "count": 1246,
      "max": [
        1.0,
        1.0,
        1.0
      ],
      "min": [
        -1.0,
        -1.0,
        -1.0
      ],
      "type": "VEC3"
    },
    {
      "bufferView": 3,
      "byteOffset": 1792,
      "componentType": 5126,
      "count": 1246,
      "max": [
        1.0,
        1.0,
        1.0,
        1.0
      ],
      "min": [
        -1.0,
        -1.0,
        -1.0,
        -1.0
      ],
      "type": "VEC4"
    },
    {
      "bufferView": 1,
      "byteOffset": 896,
      "componentType": 5126,
      "count": 1246,
      "max": [
        0.9975258708000183,
        0.8208378553390503
      ],
      "min": [
        0.024355445057153702,
        0.0041460683569312096
      ],
      "type": "VEC2"
    },
    {
      "bufferView": 0,
      "byteOffset": 648,
      "componentType": 5125,
      "count": 3726,
      "type": "SCALAR"
    },
    {
      "bufferView": 2,
      "byteOffset": 32592,
      "componentType": 5126,
      "count": 642,
      "max": [
        1.7216702699661255,
        3.3720364570617676,
        -2.659348964691162
      ],
      "min": [
        -1.7216702699661255,
        -1.1920928955078125e-07,
        -5.340651035308838
      ],
      "type": "VEC3"
    },
    {
      "bufferView": 2,
      "byteOffset": 40296,
      "componentType": 5126,
      "count": 642,
      "max": [
        1.0,
        1.0,
        1.0
      ],
      "min": [
        -1.0,
        -1.0,
        -1.0
      ],
      "type": "VEC3"
    },
    {
      "bufferView": 3,
      "byteOffset": 21728,
      "componentType": 5126,
      "count": 642,
      "max": [
        1.0,
        1.0,
        1.0,
        1.0
      ],
      "min": [
        -1.0,
        -1.0,
        -1.0,
        -1.0
      ],
      "type": "VEC4"
    },
    {
      "bufferView": 1,
      "byteOffset": 10864,
      "componentType": 5126,
      "count": 642,
      "max": [
        0.9815970063209534,
        0.9904118180274963
      ],
      "min": [
        0.01836530491709709,
        0.3155525326728821
      ],
      "type": "VEC2"
    },
    {
      "bufferView": 0,
      "byteOffset": 15552,
      "componentType": 5125,
      "count": 2250,
      "type": "SCALAR"
    },
    {
      "bufferView": 2,
      "byteOffset": 48000,
      "componentType": 5126,
      "count": 98,
      "max": [
        1.1705092191696167,
        1.910243272781372,
        5.177842617034912
      ],
      "min": [
        -1.1705092191696167,
        6.556510925292969e-07,
        2.9999992847442627
      ],
      "type": "VEC3"
    },
    {
      "bufferView": 2,
      "byteOffset": 49176,
      "componentType": 5126,
      "count": 98,
      "max": [
        1.0,
        1.0,
        1.0
      ],
      "min": [
        -1.0,
        -1.0,
        -1.0
      ],
      "type": "VEC3"
    },
    {
      "bufferView": 3,
      "byteOffset": 32000,
      "componentType": 5126,
      "count": 98,
      "max": [
        0.9827598929405212,
        1.0,
        1.0,
        1.0
      ],
      "min": [
        -0.9827598929405212,
        -1.0,
        -1.0,
        -1.0
      ],
      "type": "VEC4"
    },
    {
      "bufferView": 1,
      "byteOffset": 16000,
      "componentType": 5126,
      "count": 98,
      "max": [
        0.5182853937149048,
        0.9959359169006348
      ],
      "min": [
        0.010425361804664135,
        0.5103111267089844
      ],
      "type": "VEC2"
    },
    {
      "bufferView": 0,
      "byteOffset": 24552,
      "componentType": 5125,
      "count": 192,
      "type": "SCALAR"
    },
    {
      "bufferView": 2,
      "byteOffset": 50352,
      "componentType": 5126,
      "count": 1220,
      "max": [
        5.344575881958008,
        1.7925840616226196,
        -0.7286701202392578
      ],
      "min": [
        4.65542459487915,
        -1.7925840616226196,
        -1.2713298797607422
      ],
      "type": "VEC3"
    },
    {
      "bufferView": 2,
      "byteOffset": 64992,
      "componentType": 5126,
      "count": 1220,
      "max": [
        1.0,
        1.0,
        1.0
      ],
      "min": [
        -1.0,
        -1.0,
        -1.0
      ],
      "type": "VEC3"
    },
    {
      "bufferView": 3,
      "byteOffset": 33568,
      "componentType": 5126,
      "count": 1220,
      "max": [
        1.0,
        0.9999962449073792,
        0.9999997615814209,
        1.0
      ],
      "min": [
        -1.0,
        -0.9999961256980896,
        -0.9999996423721313,
        -1.0
      ],
      "type": "VEC4"
    },
    {
      "bufferView": 1,
      "byteOffset": 16784,
      "componentType": 5126,
      "count": 1220,
      "max": [
        0.9839059114456177,
        0.9907398819923401
      ],
      "min": [
        0.8625041842460632,
        0.020813947543501854
      ],
      "type": "VEC2"
    },
    {
      "bufferView": 0,
      "byteOffset": 25320,
      "componentType": 5125,
      "count": 5832,
      "type": "SCALAR"
    },
    {
      "bufferView": 2,
      "byteOffset": 79632,
      "componentType": 5126,
      "count": 2711,
      "max": [
        5.346841812133789,
        0.7401856780052185,
        0.34684205055236816
      ],
      "min": [
        4.653158187866211,
        0.0,
        -0.3468419909477234
      ],
      "type": "VEC3"
    },
    {
      "bufferView": 2,
      "byteOffset": 112164,
      "componentType": 5126,
      "count": 2711,
      "max": [
        1.0,
        1.0,
        1.0
      ],
      "min": [
        -1.0,
        -0.9614031910896301,
        -1.0
      ],
      "type": "VEC3"
    },
    {
      "bufferView": 3,
      "byteOffset": 53088,
      "componentType": 5126,
      "count": 2711,
      "max": [
        1.0,
        1.0,
        1.0,
        1.0
      ],
      "min": [
        -1.0,
        -0.9879466891288757,
        -1.0,
        1.0
      ],
      "type": "VEC4"
    },
    {
      "bufferView": 1,
      "byteOffset": 26544,
      "componentType": 5126,
      "count": 2711,
      "max": [
        0.9947430491447449,
        0.8594013452529907
      ],
      "min": [
        0.02824312448501587,
        0.011448354460299015
      ],
      "type": "VEC2"
    },
    {
      "bufferView": 0,
      "byteOffset": 48648,
      "componentType": 5125,
      "count": 7842,
      "type": "SCALAR"
    },
    {
      "bufferView": 2,
      "byteOffset": 144696,
      "componentType": 5126,
      "count": 521,
      "max": [
        3.4977264404296875,
        0.7421259880065918,
        -2.887895107269287
      ],
      "min": [
        2.5834805965423584,
        -0.7421259880065918,
        -5.112104892730713
      ],
      "type": "VEC3"
    },
    {
      "bufferView": 2,
      "byteOffset": 150948,
      "componentType": 5126,
      "count": 521,
      "max": [
        1.0,
        1.0,
        1.0
      ],
      "min": [
        -1.0,
        -1.0,
        -1.0
      ],
      "type": "VEC3"
    },
    {
      "bufferView": 3,
      "byteOffset": 96464,
      "componentType": 5126,
      "count": 521,
      "max": [
        0.9999977946281433,
        1.0,
        1.0,
        1.0
      ],
      "min": [
        -0.999888002872467,
        -0.9999986290931702,
        -0.9999998807907104,
        1.0
      ],
      "type": "VEC4"
    },
    {
      "bufferView": 1,
      "byteOffset": 48232,
      "componentType": 5126,
      "count": 521,
      "max": [
        0.9886900186538696,
        0.9950897693634033
      ],
      "min": [
        0.013958546333014965,
        0.007131760939955711
      ],
      "type": "VEC2"
    },
    {
      "bufferView": 0,
      "byteOffset": 80016,
      "componentType": 5125,
      "count": 1482,
      "type": "SCALAR"
    },
    {
      "bufferView": 2,
      "byteOffset": 157200,
      "componentType": 5126,
      "count": 824,
      "max": [
        5.441800117492676,
        1.528159737586975,
        4.79227352142334
      ],
      "min": [
        4.5725884437561035,
        -0.3420182466506958,
        3.2077267169952393
      ],
      "type": "VEC3"
    },
    {
      "bufferView": 2,
      "byteOffset": 167088,
      "componentType": 5126,
      "count": 824,
      "max": [
        1.0,
        1.0,
        1.0
      ],
      "min": [
        -1.0,
        -1.0,
        -1.0
      ],
      "type": "VEC3"
    },
    {
      "bufferView": 3,
      "byteOffset": 104800,
      "componentType": 5126,
      "count": 824,
      "max": [
        1.0,
        1.0,
        1.0,
        1.0
      ],
      "min": [
        -1.0,
        -1.0,
        -1.0,
        -1.0
      ],
      "type": "VEC4"
    },
    {
      "bufferView": 1,
      "byteOffset": 52400,
      "componentType": 5126,
      "count": 824,
      "max": [
        0.9923552870750427,
        0.9879668951034546
      ],
      "min": [
        0.0038732290267944336,
        0.012213900685310364
      ],
      "type": "VEC2"
    },
    {
      "bufferView": 0,
      "byteOffset": 85944,
      "componentType": 5125,
      "count": 3300,
      "type": "SCALAR"
    }
  ],
  "asset": {
    "extras": {
      "author": "KillTheSaint (https://sketchfab.com/KillTheSaint)",
      "license": "CC-BY-4.0 (http://creativecommons.org/licenses/by/4.0/)",
      "source": "https://sketchfab.com/3d-models/rooftop-assets-dfd3b70f5831422fb1aee537feb1dc97",
      "title": "Rooftop Assets"
    },
    "generator": "Sketchfab-15.34.0",
    "version": "2.0"
  },
  "bufferViews": [
    {
      "buffer": 0,
      "byteLength": 99144,
      "name": "floatBufferViews",
      "target": 34963
    },
    {
      "buffer": 0,
      "byteLength": 58992,
      "byteOffset": 99144,
      "byteStride": 8,
      "name": "floatBufferViews",
      "target": 34962
    },
    {
      "buffer": 0,
      "byteLength": 176976,
      "byteOffset": 158136,
      "byteStride": 12,
      "name": "floatBufferViews",
      "target": 34962
    },
    {
      "buffer": 0,
      "byteLength": 117984,
      "byteOffset": 335112,
      "byteStride": 16,
      "name": "floatBufferViews",
      "target": 34962
    }
  ],
  "buffers": [
    {
      "byteLength": 453096,
      "uri": "scene.bin"
    }
  ],
  "extensionsUsed": [
    "KHR_materials_specular"
  ],
  "images": [
    {
      "uri": "textures/lambert22_baseColor.png"
    },
    {
      "uri": "textures/lambert22_metallicRoughness.png"
    },
    {
      "uri": "textures/lambert22_normal.png"
    },
    {
      "uri": "textures/lambert3_baseColor.png"
    },
    {
      "uri": "textures/lambert3_metallicRoughness.png"
    },
    {
      "uri": "textures/lambert3_normal.png"
    },
    {
      "uri": "textures/lambert19_baseColor.png"
    },
    {
      "uri": "textures/lambert19_metallicRoughness.png"
    },
    {
      "uri": "textures/lambert19_normal.png"
    },
    {
      "uri": "textures/lambert15_baseColor.png"
    },
    {
      "uri": "textures/lambert15_metallicRoughness.png"
    },
    {
      "uri": "textures/lambert15_normal.png"
    },
    {
      "uri": "textures/lambert23_baseColor.png"
    },
    {
      "uri": "textures/lambert23_metallicRoughness.png"
    },
    {
      "uri": "textures/lambert23_normal.png"
    },
    {
      "uri": "textures/lambert6_baseColor.png"
    },
    {
      "uri": "textures/lambert6_metallicRoughness.png"
    },
    {
      "uri": "textures/lambert6_normal.png"
    },
    {
      "uri": "textures/lambert24_baseColor.png"
    },
    {
      "uri": "textures/lambert24_metallicRoughness.png"
    },
    {
      "uri": "textures/lambert24_normal.png"
    },
    {
      "uri": "textures/lambert21_baseColor.png"
    },
    {
      "uri": "textures/lambert21_metallicRoughness.png"
    },
    {
      "uri": "textures/lambert21_normal.png"
    }
  ],
  "materials": [
    {
      "doubleSided": true,
      "extensions": {
        "KHR_materials_specular": {
          "specularColorFactor": [
            1.0,
            1.0,
            1.0
          ],
          "specularFactor": 0.0
        }
      },
      "name": "lambert22",
      "normalTexture": {
        "index": 2
      },
      "occlusionTexture": {
        "index": 1
      },
      "pbrMetallicRoughness": {
        "baseColorTexture": {
          "index": 0
        },
        "metallicRoughnessTexture": {
          "index": 1
        },
        "roughnessFactor": 0.6
      }
    },
    {
      "doubleSided": true,
      "extensions": {
        "KHR_materials_specular": {
          "specularColorFactor": [
            1.0,
            1.0,
            1.0
          ],
          "specularFactor": 0.0
        }
      },
      "name": "lambert3",
      "normalTexture": {
        "index": 5
      },
      "occlusionTexture": {
        "index": 4
      },
      "pbrMetallicRoughness": {
        "baseColorTexture": {
          "index": 3
        },
        "metallicRoughnessTexture": {
          "index": 4
        },
        "roughnessFactor": 0.6
      }
    },
    {
      "doubleSided": true,
      "extensions": {
        "KHR_materials_specular": {
          "specularColorFactor": [
            1.0,
            1.0,
            1.0
          ],
          "specularFactor": 0.0
        }
      },
      "name": "lambert19",
      "normalTexture": {
        "index": 8
      },
      "occlusionTexture": {
        "index": 7
      },
      "pbrMetallicRoughness": {
        "baseColorTexture": {
          "index": 6
        },
        "metallicRoughnessTexture": {
          "index": 7
        },
        "roughnessFactor": 0.6
      }
    },
    {
      "doubleSided": true,
      "extensions": {
        "KHR_materials_specular": {
          "specularColorFactor": [
            1.0,
            1.0,
            1.0
          ],
          "specularFactor": 0.0
        }
      },
      "name": "lambert15",
      "normalTexture": {
        "index": 11
      },
      "occlusionTexture": {
        "index": 10
      },
      "pbrMetallicRoughness": {
        "baseColorTexture": {
          "index": 9
        },
        "metallicRoughnessTexture": {
          "index": 10
        },
        "roughnessFactor": 0.6
      }
    },
    {
      "doubleSided": true,
      "extensions": {
        "KHR_materials_specular": {
          "specularColorFactor": [
            1.0,
            1.0,
            1.0
          ],
          "specularFactor": 1.0
        }
      },
      "name": "lambert23",
      "normalTexture": {
        "index": 14
      },
      "occlusionTexture": {
        "index": 13
      },
      "pbrMetallicRoughness": {
        "baseColorTexture": {
          "index": 12
        },
        "metallicRoughnessTexture": {
          "index": 13
        },
        "roughnessFactor": 0.6
      }
    },
    {
      "doubleSided": true,
      "extensions": {
        "KHR_materials_specular": {
          "specularColorFactor": [
            1.0,
            1.0,
            1.0
          ],
          "specularFactor": 1.0
        }
      },
      "name": "lambert6",
      "normalTexture": {
        "index": 17
      },
      "occlusionTexture": {
        "index": 16
      },
      "pbrMetallicRoughness": {
        "baseColorTexture": {
          "index": 15
        },
        "metallicRoughnessTexture": {
          "index": 16
        },
        "roughnessFactor": 0.6
      }
    },
    {
      "doubleSided": true,
      "extensions": {
        "KHR_materials_specular": {
          "specularColorFactor": [
            1.0,
            1.0,
            1.0
          ],
          "specularFactor": 1.0
        }
      },
      "name": "lambert24",
      "normalTexture": {
        "index": 20
      },
      "occlusionTexture": {
        "index": 19
      },
      "pbrMetallicRoughness": {
        "baseColorTexture": {
          "index": 18
        },
        "metallicRoughnessTexture": {
          "index": 19
        },
        "roughnessFactor": 0.6
      }
    },
    {
      "doubleSided": true,
      "extensions": {
        "KHR_materials_specular": {
          "specularColorFactor": [
            1.0,
            1.0,
            1.0
          ],
          "specularFactor": 0.0
        }
      },
      "name": "lambert21",
      "normalTexture": {
        "index": 23
      },
      "occlusionTexture": {
        "index": 22
      },
      "pbrMetallicRoughness": {
        "baseColorTexture": {
          "index": 21
        },
        "metallicRoughnessTexture": {
          "index": 22
        },
        "roughnessFactor": 0.6
      }
    }
  ],
  "meshes": [
    {
      "name": "pCube14_lambert22_0",
      "primitives": [
        {
          "attributes": {
            "NORMAL": 1,
            "POSITION": 0,
            "TANGENT": 2,
            "TEXCOORD_0": 3
          },
          "indices": 4,
          "material": 0,
          "mode": 4
        }
      ]
    },
    {
      "name": "Hut1_low_lambert3_0",
      "primitives": [
        {
          "attributes": {
            "NORMAL": 6,
            "POSITION": 5,
            "TANGENT": 7,
            "TEXCOORD_0": 8
          },
          "indices": 9,
          "material": 1,
          "mode": 4
        }
      ]
    },
    {
      "name": "Hut2_low_lambert19_0",
      "primitives": [
        {
          "attributes": {
            "NORMAL": 11,
            "POSITION": 10,
            "TANGENT": 12,
            "TEXCOORD_0": 13
          },
          "indices": 14,
          "material": 2,
          "mode": 4
        }
      ]
    },
    {
      "name": "Hut3_low_lambert15_0",
      "primitives": [
        {
          "attributes": {
            "NORMAL": 16,
            "POSITION": 15,
            "TANGENT": 17,
            "TEXCOORD_0": 18
          },
          "indices": 19,
          "material": 3,
          "mode": 4
        }
      ]
    },
    {
      "name": "pCylinder39_lambert23_0",
      "primitives": [
        {
          "attributes": {
            "NORMAL": 21,
            "POSITION": 20,
            "TANGENT": 22,
            "TEXCOORD_0": 23
          },
          "indices": 24,
          "material": 4,
          "mode": 4
        }
      ]
    },
    {
      "name": "group2_pCylinder1_lambert6_0",
      "primitives": [
        {
          "attributes": {
            "NORMAL": 26,
            "POSITION": 25,
            "TANGENT": 27,
            "TEXCOORD_0": 28
          },
          "indices": 29,
          "material": 5,
          "mode": 4
        }
      ]
    },
    {
      "name": "pCube23_lambert24_0",
      "primitives": [
        {
          "attributes": {
            "NORMAL": 31,
            "POSITION": 30,
            "TANGENT": 32,
            "TEXCOORD_0": 33
          },
          "indices": 34,
          "material": 6,
          "mode": 4
        }
      ]
    },
    {
      "name": "pCube21_lambert21_0",
      "primitives": [
        {
          "attributes": {
            "NORMAL": 36,
            "POSITION": 35,
            "TANGENT": 37,
            "TEXCOORD_0": 38
          },
          "indices": 39,
          "material": 7,
          "mode": 4
        }
      ]
    }
  ],
  "nodes": [
    {
      "children": [
        1
      ],
      "matrix": [
        1.0,
        0.0,
        0.0,
        0.0,
        0.0,
        2.220446049250313e-16,
        -1.0,
        0.0,
        0.0,
        1.0,
        2.220446049250313e-16,
        0.0,
        0.0,
        0.0,
        0.0,
        1.0
      ],
      "name": "Sketchfab_model"
    },
    {
      "children": [
        2
      ],
      "matrix": [
        0.009999999776482582,
        0.0,
        0.0,
        0.0,
        0.0,
        0.0,
        0.009999999776482582,
        0.0,
        0.0,
        -0.009999999776482582,
        0.0,
        0.0,
        0.0,
        0.0,
        0.0,
        1.0
      ],
      "name": "d95973ecbfc14520a691b30e11020a92.fbx"
    },
    {
      "children": [
        3,
        5,
        7,
        9,
        11,
        13,
        15,
        17
      ],
      "name": "RootNode"
    },
    {
      "children": [
        4
      ],
      "name": "pCube14"
    },
    {
      "mesh": 0,
      "name": "pCube14_lambert22_0"
    },
    {
      "children": [
        6
      ],
      "name": "Hut1_low"
    },
    {
      "mesh": 1,
      "name": "Hut1_low_lambert3_0"
    },
    {
      "children": [
        8
      ],
      "name": "Hut2_low"
    },
    {
      "mesh": 2,
      "name": "Hut2_low_lambert19_0"
    },
    {
      "children": [
        10
      ],
      "name": "Hut3_low"
    },
    {
      "mesh": 3,
      "name": "Hut3_low_lambert15_0"
    },
    {
      "children": [
        12
      ],
      "name": "pCylinder39"
    },
    {
      "mesh": 4,
      "name": "pCylinder39_lambert23_0"
    },
    {
      "children": [
        14
      ],
      "name": "group2_pCylinder1"
    },
    {
      "mesh": 5,
      "name": "group2_pCylinder1_lambert6_0"
    },
    {
      "children": [
        16
      ],
      "name": "pCube23"
    },
    {
      "mesh": 6,
      "name": "pCube23_lambert24_0"
    },
    {
      "children": [
        18
      ],
      "name": "pCube21"
    },
    {
      "mesh": 7,
      "name": "pCube21_lambert21_0"
    }
  ],
  "samplers": [
    {
      "magFilter": 9729,
      "minFilter": 9987,
      "wrapS": 10497,
      "wrapT": 10497
    }
  ],
  "scene": 0,
  "scenes": [
    {
      "name": "Sketchfab_Scene",
      "nodes": [
        0
      ]
    }
  ],
  "textures": [
    {
      "sampler": 0,
      "source": 0
    },
    {
      "sampler": 0,
      "source": 1
    },
    {
      "sampler": 0,
      "source": 2
    },
    {
      "sampler": 0,
      "source": 3
    },
    {
      "sampler": 0,
      "source": 4
    },
    {
      "sampler": 0,
      "source": 5
    },
    {
      "sampler": 0,
      "source": 6
    },
    {
      "sampler": 0,
      "source": 7
    },
    {
      "sampler": 0,
      "source": 8
    },
    {
      "sampler": 0,
      "source": 9
    },
    {
      "sampler": 0,
      "source": 10
    },
    {
      "sampler": 0,
      "source": 11
    },
    {
      "sampler": 0,
      "source": 12
    },
    {
      "sampler": 0,
      "source": 13
    },
    {
      "sampler": 0,
      "source": 14
    },
    {
      "sampler": 0,
      "source": 15
    },
    {
      "sampler": 0,
      "source": 16
    },
    {
      "sampler": 0,
      "source": 17
    },
    {
      "sampler": 0,
      "source": 18
    },
    {
      "sampler": 0,
      "source": 19
    },
    {
      "sampler": 0,
      "source": 20
    },
    {
      "sampler": 0,
      "source": 21
    },
    {
      "sampler": 0,
      "source": 22
    },
    {
      "sampler": 0,
      "source": 23
    }
  ]
}
